HIERARCHY
ROOT Hips
{
	OFFSET 0.00000 0.00000 0.00000
	CHANNELS 6 Xposition Yposition Zposition Zrotation Yrotation Xrotation 
	JOINT LHipJoint
	{
		OFFSET 0 0 0
		CHANNELS 3 Zrotation Yrotation Xrotation
		JOINT LeftHip
		{
			OFFSET 1.36337 -1.57426 1.11036
			CHANNELS 3 Zrotation Yrotation Xrotation
			JOINT LeftKnee
			{
				OFFSET 2.38468 -6.55187 0.00000
				CHANNELS 3 Zrotation Yrotation Xrotation
				JOINT LeftAnkle
				{
					OFFSET 2.37166 -6.51609 0.00000
					CHANNELS 3 Zrotation Yrotation Xrotation
					JOINT LeftToe
					{
						OFFSET 0.29078 -0.79891 2.01393
						CHANNELS 3 Zrotation Yrotation Xrotation
						End Site
						{
							OFFSET 0.00000 -0.00000 1.07924
						}
					}
				}
			}
		}
	}
	JOINT RHipJoint
	{
		OFFSET 0 0 0
		CHANNELS 3 Zrotation Yrotation Xrotation
		JOINT RightHip
		{
			OFFSET -1.36349 -1.57426 1.11036
			CHANNELS 3 Zrotation Yrotation Xrotation
			JOINT RightKnee
			{
				OFFSET -2.29562 -6.30717 0.00000
				CHANNELS 3 Zrotation Yrotation Xrotation
				JOINT RightAnkle
				{
					OFFSET -2.40985 -6.62100 0.00000
					CHANNELS 3 Zrotation Yrotation Xrotation
					JOINT RightToe
					{
						OFFSET -0.23197 -0.63733 1.92232
						CHANNELS 3 Zrotation Yrotation Xrotation
						End Site
						{
							OFFSET -0.00000 -0.00000 1.01562
						}
					}
				}
			}
		}
	}
	JOINT lowerback
	{
		OFFSET 0 0 0
		CHANNELS 3 Zrotation Yrotation Xrotation
		JOINT Chest
		{
			OFFSET -0.08565 2.03602 -0.24562
			CHANNELS 3 Zrotation Yrotation Xrotation
			JOINT Chest2
			{
				OFFSET -0.00036 2.05693 0.00216
				CHANNELS 3 Zrotation Yrotation Xrotation
				JOINT lowerneck
				{
					OFFSET 0 0 0
					CHANNELS 3 Zrotation Yrotation Xrotation
					JOINT Neck
					{
						OFFSET -0.03664 1.69515 0.31789
						CHANNELS 3 Zrotation Yrotation Xrotation
						JOINT Head
						{
							OFFSET 0.00932 1.70181 -0.46013
							CHANNELS 3 Zrotation Yrotation Xrotation
							End Site
							{
								OFFSET 0.01243 1.77620 -0.19377
							}
						}
					}
				}
				JOINT LeftCollar
				{
					OFFSET 0 0 0
					CHANNELS 3 Zrotation Yrotation Xrotation
					JOINT LeftShoulder
					{
						OFFSET 3.74344 0.81315 -0.36647
CHANNELS 3 Zrotation Xrotation Yrotation
						JOINT LeftElbow
						{
OFFSET 0 -4.971850 -0.000000
CHANNELS 3 Zrotation Xrotation Yrotation
							JOINT LeftWrist
							{
OFFSET 0 -3.358110 0.000000
CHANNELS 3 Zrotation Xrotation Yrotation
								JOINT lhand
								{
									OFFSET 0 0 0
CHANNELS 3 Zrotation Xrotation Yrotation
									JOINT LFingers
									{
OFFSET 0 -0.622780 0.000000
CHANNELS 3 Zrotation Xrotation Yrotation
										End Site
										{
OFFSET 0 -0.502100 0.000000
										}
									}
								}
								JOINT LThumb
								{
OFFSET 0 0.000000 0.000000
CHANNELS 3 Zrotation Xrotation Yrotation
									End Site
									{
OFFSET 0 -0.509760 0.509760
									}
								}
							}
						}
					}
				}
				JOINT RightCollar
				{
					OFFSET 0 0 0
					CHANNELS 3 Zrotation Yrotation Xrotation
					JOINT RightShoulder
					{
						OFFSET -3.75385 0.50666 -0.06525
CHANNELS 3 Zrotation Xrotation Yrotation
						JOINT RightElbow
						{
OFFSET 0 -4.964930 -0.000000
CHANNELS 3 Zrotation Xrotation Yrotation
							JOINT RightWrist
							{
OFFSET 0 -3.349290 0.000000
CHANNELS 3 Zrotation Xrotation Yrotation
								JOINT rhand
								{
									OFFSET 0 0 0
CHANNELS 3 Zrotation Xrotation Yrotation
									JOINT RFingers
									{
OFFSET 0 -0.638040 0.000000
CHANNELS 3 Zrotation Xrotation Yrotation
										End Site
										{
OFFSET 0 -0.514410 0.000000
										}
									}
								}
								JOINT RThumb
								{
OFFSET 0 0.000000 0.000000
CHANNELS 3 Zrotation Xrotation Yrotation
									End Site
									{
OFFSET 0 -0.522260 0.522260
									}
								}
							}
						}
					}
				}
			}
		}
	}
}
MOTION
Frames: 7
Frame Time: 0.008333333333333333
-21.296400 14.332400 -0.554300 176.627000 3.660100 -165.916000 0.000000 0.000000 0.000000 -7.699700 6.416600 -54.435700 11.860900 18.331200 65.547300 1.212400 -1.485500 -20.378700 2.079500 -9.029700 -25.888400 0.000000 0.000000 0.000000 -6.633700 -8.445800 -51.449000 -9.043100 -16.835400 56.239200 -0.563900 1.615400 -13.721100 -1.151700 6.814100 -19.165700 -2.470000 0.386400 21.465200 0.015900 1.007100 5.828100 1.124800 0.931300 -5.657300 0.148400 2.537700 -28.040800 -8.256300 5.354600 12.457200 -2.048300 1.727100 8.674600 0.000000 0.000000 0.000000 8.597100 -28.974700 -33.393300 52.617800 -53.998200 28.278600 35.227300 -31.332000 14.201000 0.000000 0.000000 0.000000 -7.125000 0.000000 0.000000 5.200100 12.820100 3.933200 0.000000 0.000000 0.000000 -9.730600 -28.242900 20.824400 -53.975900 -54.478400 -29.380700 -24.113300 5.163500 28.986700 0.000000 0.000000 0.000000 7.125000 0.000000 -0.000000 7.954300 61.062000 -3.123700
-21.288568 14.330202 -0.560511 176.728324 3.684096 -165.945394 0.000000 0.000000 0.000000 -7.538259 6.555755 -54.437463 11.889411 18.343516 65.637892 1.212904 -1.677320 -20.333561 2.026114 -8.920094 -25.545807 0.000000 0.000000 0.000000 -6.548360 -8.199925 -51.244091 -8.985542 -16.798392 56.040082 -0.550550 1.354854 -13.614989 -1.216157 6.995134 -19.700933 -2.227333 0.408116 21.424075 0.005441 1.097357 5.882823 0.953097 0.976148 -5.578042 0.303416 2.528777 -27.945765 -8.140624 5.239505 12.355712 -2.051245 1.695812 8.616998 0.000000 0.000000 0.000000 8.926380 -28.949791 -33.515671 52.695233 -54.026299 28.341265 34.645387 -31.571207 14.188083 0.000000 0.000000 0.000000 -7.125000 0.000000 0.000000 4.815940 12.941662 3.628460 0.000000 0.000000 0.000000 -9.749174 -28.476095 20.821028 -54.356261 -54.608056 -29.690552 -24.555923 5.192076 29.119064 0.000000 0.000000 0.000000 7.125000 0.000000 0.000000 7.517397 61.308450 -2.994664
-21.284408 14.341568 -0.569003 176.775940 3.707176 -165.913948 0.000000 0.000000 0.000000 -7.436298 6.581370 -54.408278 11.885098 18.341616 65.624159 1.213811 -1.909458 -20.283587 1.914593 -8.685888 -24.817586 0.000000 0.000000 0.000000 -6.596435 -7.979182 -51.118770 -8.946326 -16.773097 55.904431 -0.549209 1.425596 -13.580587 -1.138619 6.775373 -19.052033 -2.103517 0.347016 21.401419 0.015281 1.046255 5.897782 0.906803 0.950687 -5.547591 0.147274 2.531771 -28.094165 -7.836710 5.234702 12.366030 -1.922443 1.712568 8.627390 0.000000 0.000000 0.000000 9.122093 -28.886897 -33.236604 52.667039 -54.016163 28.318477 33.917723 -30.988767 13.751196 0.000000 0.000000 0.000000 -7.125000 0.000000 0.000000 4.390581 13.584094 3.246304 0.000000 0.000000 0.000000 -9.691731 -28.539365 21.171938 -54.798862 -54.756628 -30.051677 -24.120615 4.844199 29.555374 0.000000 0.000000 0.000000 7.125000 0.000000 0.000000 8.271799 61.644452 -3.363744
-21.277966 14.344736 -0.576773 176.755454 3.773521 -165.792209 0.000000 0.000000 0.000000 -7.452532 6.589196 -54.461675 11.861320 18.331363 65.548519 1.218042 -1.834565 -20.338456 1.970903 -8.804873 -25.187079 0.000000 0.000000 0.000000 -6.575909 -7.948039 -51.279619 -8.970607 -16.788761 55.988392 -0.557352 1.500644 -13.665710 -1.089838 6.633228 -18.633595 -1.981514 0.296456 21.322412 -0.093826 1.010075 5.959299 0.731286 0.935056 -5.436048 -0.618957 2.450470 -28.756442 -6.609712 5.163669 12.514405 -1.388202 1.749172 8.712348 0.000000 0.000000 0.000000 9.639461 -28.891155 -33.052481 52.609832 -53.995359 28.272178 33.895536 -31.843313 13.985146 0.000000 0.000000 0.000000 -7.125000 0.000000 0.000000 4.344782 13.313734 3.236631 0.000000 0.000000 0.000000 -9.759742 -28.672260 21.420942 -55.132126 -54.866487 -30.324020 -23.428806 4.041593 29.182990 0.000000 0.000000 0.000000 7.125000 0.000000 0.000000 8.851077 61.091870 -3.484358
-21.269402 14.341572 -0.582846 176.699673 3.868220 -165.737424 0.000000 0.000000 0.000000 -7.560332 6.668701 -54.452638 11.828077 18.317002 65.442747 1.214534 -1.583144 -20.371445 2.101315 -9.073732 -26.026266 0.000000 0.000000 0.000000 -6.647236 -7.912675 -51.406131 -9.000262 -16.807881 56.090966 -0.565950 1.540180 -13.765027 -1.051239 6.517611 -18.294646 -2.059699 0.248643 21.342766 -0.041967 0.934158 5.965685 0.850785 0.898323 -5.438725 -0.719072 2.504393 -28.558396 -6.644297 5.259247 12.035592 -1.369111 1.813617 8.517047 0.000000 0.000000 0.000000 9.759679 -28.663497 -32.709446 52.464025 -53.942222 28.154254 33.766765 -32.289674 14.176820 0.000000 0.000000 0.000000 -7.125000 0.000000 0.000000 4.233361 13.111452 3.171438 0.000000 0.000000 0.000000 -10.035799 -28.599935 21.783562 -55.526235 -54.994895 -30.646627 -23.235081 3.429994 28.556387 0.000000 0.000000 0.000000 7.125000 0.000000 0.000000 8.716828 60.406016 -3.290398
-21.262230 14.345687 -0.586379 176.620321 3.991722 -165.699361 0.000000 0.000000 0.000000 -7.561264 6.666604 -54.416876 11.819191 18.313196 65.414572 1.224625 -1.769955 -20.411017 1.921829 -8.701273 -24.865405 0.000000 0.000000 0.000000 -6.765038 -7.886135 -51.515385 -9.000793 -16.808196 56.092776 -0.561258 1.640497 -13.683319 -1.051220 6.519563 -18.299651 -2.111881 0.274119 21.496200 -0.101256 0.932812 5.862530 0.813574 0.894335 -5.629206 -0.900727 2.433708 -28.688760 -6.220635 5.149293 12.365423 -1.212244 1.776634 8.627247 0.000000 0.000000 0.000000 9.977336 -28.333750 -32.799398 52.117378 -53.814541 27.874239 33.880655 -32.268114 14.186515 0.000000 0.000000 0.000000 -7.125000 0.000000 0.000000 4.307936 13.080036 3.230610 0.000000 0.000000 0.000000 -10.185404 -28.206597 22.129156 -55.900774 -55.114797 -30.953583 -23.562436 3.156249 27.889074 0.000000 0.000000 0.000000 7.125000 0.000000 0.000000 7.988448 59.802945 -2.897668
-21.258839 14.341261 -0.587421 176.575785 4.027055 -165.607693 0.000000 0.000000 0.000000 -7.591244 6.615947 -54.504691 11.835049 18.320052 65.464909 1.225840 -1.650933 -20.451680 1.994126 -8.853850 -25.339268 0.000000 0.000000 0.000000 -6.654474 -8.171250 -51.793436 -9.032275 -16.828423 56.201631 -0.557306 1.927203 -13.571213 -1.033008 6.464473 -18.138267 -2.243855 0.260193 21.420564 -0.043604 0.892872 5.886675 0.962661 0.874973 -5.564178 -0.055499 2.669178 -28.333797 -7.225877 5.335336 11.885787 -1.662679 1.828961 8.471685 0.000000 0.000000 0.000000 10.141539 -27.636006 -32.833078 52.715204 -54.033131 28.357502 33.809377 -32.196555 14.226030 0.000000 0.000000 0.000000 -7.125000 0.000000 0.000000 4.255155 13.046341 3.193861 0.000000 0.000000 0.000000 -10.652829 -27.921751 22.645063 -56.621921 -55.340246 -31.545957 -23.730799 2.677200 27.680428 0.000000 0.000000 0.000000 7.125000 0.000000 0.000000 7.692311 59.629099 -2.757510
